<?xml version="1.0" encoding="utf-8" ?>
<svg xmlns="http://www.w3.org/2000/svg" xmlns:xlink="http://www.w3.org/1999/xlink" width="1024" height="1024">
	<defs>
		<linearGradient id="gradient_0" gradientUnits="userSpaceOnUse" x1="77.785988" y1="1082.6302" x2="705.46271" y2="256.92062">
			<stop offset="0" stop-color="#0475AC"/>
			<stop offset="1" stop-color="#8BC4CC"/>
		</linearGradient>
	</defs>
	<path fill="url(#gradient_0)" d="M0 0L339.484 0L1024 0L1024 756.83L1024 1024L0 1024L0 0Z"/>
	<path fill="#256C90" d="M393.501 825.191C396.308 825.107 399.207 825.079 401.995 825.467C403.834 825.722 405.588 825.795 406.744 827.304C403.586 828.1 394.809 828.017 391.91 826.712L391.762 825.879L393.501 825.191Z"/>
	<path fill="#256C90" d="M780.422 695.196L781.072 695.8C780.157 701.297 779.273 709.121 776.731 714.026C774.482 718.367 774.107 723.538 771.876 727.85C767.964 735.408 763.921 743.068 758.967 750.007C744.181 770.713 721.332 786.747 697.274 794.773C690.87 796.909 684.293 798.608 677.57 799.337C667.517 800.427 657.023 799.155 646.903 799.486C604.606 800.87 562.28 800.083 519.963 800.014L459.93 800.049C453.936 800.093 444.258 799.445 438.72 800.005C433.283 800.556 432.146 815.64 422.357 812.431C421.787 813.625 422.268 814.928 422.518 816.166L422.068 816.538C419.805 816.025 416.961 815.01 414.664 815.387C413.635 816.798 414.343 817.87 413.895 819.38C413.002 822.39 406.342 823.545 403.614 823.973C389.301 826.219 376.702 819.274 362.629 819.363C359.091 819.385 358.241 816.274 354.371 818.182C353.523 818.6 353.198 818.978 352.311 818.632C349.214 817.424 340.899 810.304 338.567 810.36C336.333 810.414 333.733 811.294 331.551 811.807C328.101 812.618 324.442 813.289 321.149 814.601L320.141 814.385C324.58 812.598 329.818 810.263 334.513 809.586C344.198 808.19 353.667 805.04 363.35 803.516C368.484 802.708 372.593 804.509 377.548 802.062C377.795 801.637 378.153 801.208 378.186 800.712C377.92 800.736 377.654 800.764 377.388 800.785C375.097 800.968 372.704 800.529 370.402 800.456C367.834 800.375 365.251 800.536 362.686 800.359C350.067 799.488 336.398 794.611 325.161 789.115C322.136 787.636 318.202 785.825 315.724 783.524C315.246 783.081 314.859 782.598 314.455 782.088C322.562 786.631 330.748 790.946 339.526 794.066Q342.728 795.231 346.007 796.162Q349.285 797.092 352.622 797.783Q355.959 798.473 359.337 798.92Q362.715 799.367 366.117 799.568C375.31 800.092 384.569 799.679 393.772 799.571L432.905 799.39L556.795 799.244L632.849 798.98C647.69 798.957 662.967 799.709 677.725 798.217C689.927 796.983 701.961 792.596 712.971 787.328C743.351 772.796 764.101 746.753 775.288 715.51C777.434 709.517 778.301 700.512 780.209 695.656C780.271 695.499 780.351 695.349 780.422 695.196Z"/>
	<defs>
		<linearGradient id="gradient_1" gradientUnits="userSpaceOnUse" x1="656.17523" y1="402.02661" x2="1050.1375" y2="28.061928">
			<stop offset="0" stop-color="#96C4CA"/>
			<stop offset="1" stop-color="#D5DCDD"/>
		</linearGradient>
	</defs>
	<path fill="url(#gradient_1)" d="M339.484 0L1024 0L1024 756.83C1022.46 754.461 1020.37 753.268 1018.14 751.626C1014.39 748.85 1014.71 740.838 1012.35 736.776C1010.45 733.507 1007.37 731.638 1006.87 727.639C1006.84 727.444 1006.84 727.247 1006.82 727.051L1006.77 727.855C1005.77 723.599 1005.48 719.847 1001.71 717.173C1000.99 716.666 1001.04 716.491 1000.72 715.707L1001.77 715.004L1001.94 714.122L1001.28 713.478L1001.89 713.003L1000.9 713.401C999.504 712.355 997.462 711.128 996.59 709.603C996.462 709.38 996.349 709.148 996.229 708.92C995.441 709.162 995.698 708.98 995.123 709.556C994.989 709.69 994.865 709.833 994.735 709.972C994.522 709.777 994.339 709.544 994.096 709.388C993.321 708.891 993.069 708.888 992.42 708.207C992.251 707.347 992.105 706.415 991.807 705.591C991.473 704.665 991.122 704.441 990.271 704.016C983.9 700.834 982.204 691.517 977.763 686.135C972.493 679.75 971.829 665.964 967.786 659.473C967.654 659.261 967.512 659.057 967.378 658.848C963.889 653.42 959.134 648.859 955.657 643.55C954.459 641.721 953.305 635.848 951.781 634.786C950.788 634.095 948.905 634.289 947.838 633.47C946.227 632.234 945.272 629.378 943.549 627.84C939.154 623.918 933.517 620.219 929.607 615.889C928.035 614.148 929.064 612.69 928.393 610.847C927.595 608.658 924.231 607.756 923.104 606.011C922.066 604.403 922.107 602.05 920.857 600.579C919.358 598.815 917.655 597.135 916.086 595.422L916.087 595.418C915.653 595.468 915.468 595.512 914.989 595.436C912.84 595.093 911.566 594.011 910.455 592.201C909.891 591.282 909.906 591.171 908.903 590.592C908.684 590.465 908.459 590.349 908.237 590.228C908.659 589.305 908.484 589.526 908.996 588.87C909.095 588.743 909.202 588.622 909.305 588.497C907.64 584.662 906.213 576.25 903.201 573.729C896.916 568.468 889.54 560.384 885.413 553.209C885.315 553.038 885.223 552.864 885.127 552.692C884.369 552.886 883.866 552.984 883.11 553.031C879.614 551.33 880.869 548.332 879.073 545.599C877.977 543.931 875.59 542.911 874.681 541.223C873.241 538.55 874.232 534.181 872.404 530.731C871.21 529.686 869.986 529.689 868.476 529.508L867.777 529.429C865.711 526.823 865.884 522.86 863.901 520.21C862.925 520.168 861.668 520.232 860.734 519.979C859.051 519.523 858.457 516.945 857.799 515.451L858.096 514.885L860.5 515.099L860.961 514.323C860.797 512.89 859.935 512.229 858.976 511.249L858.531 510.802C858.646 509.673 858.745 508.663 859.157 507.59C859.241 507.371 859.346 507.161 859.44 506.946L858.836 506.155L859.878 506.262C856.508 504.753 853.387 503.69 851.099 500.654C850.548 499.922 850.349 499.582 849.584 499.048L848.917 500.449L848.473 500.482Q848.472 499.425 848.41 498.37C848.269 496.135 847.555 495.247 845.918 493.791C846.424 494.836 846.249 494.274 846.413 495.485C845.235 495.247 844.871 494.788 844.083 493.913C843.868 491.018 841.237 489.408 839.271 487.534C839.692 486.681 841.302 486.588 842.245 486.181C834.716 483.444 835.781 477.349 831.398 474.396L830.041 475.79L829.181 475.716C826.196 472.258 824.031 468.637 822.133 464.495L821.769 464.517L821.669 467.209L821.288 467.196C819.921 463.179 815.071 461.631 813.75 456.314C813.703 456.124 813.668 455.931 813.626 455.739L813.224 455.492C811.174 454.21 810.487 453.647 809.935 451.217L811.718 449.967C811.148 448.477 810.476 446.982 810.303 445.385C810.273 445.105 810.298 444.815 810.217 444.546C809.883 443.437 809.733 444.274 809.948 443.521C809.696 445.112 809.503 446.687 808.944 448.207C808.902 447.057 808.98 445.638 808.62 444.542C807.814 442.09 808.663 439.528 808.266 437.017C807.906 434.739 805.559 433.046 804.93 431.007C804.075 428.236 805.555 405.103 805.656 400.5C805.867 390.797 806.057 380.883 804.633 371.264C801.31 348.82 793.51 334.639 780.325 316.829C778.239 314.012 775.396 309.049 772.515 307.106C771.613 306.498 771.217 306.846 770.199 307.028C764.228 295.895 757.472 286 748.56 276.969C733.33 261.537 713.797 249.562 692.5 244.822C681.003 242.263 668.18 243.354 656.422 243.391L608.621 243.479L422.854 243.37C420.799 241.964 402.982 242.707 398.95 242.648C425.72 241.709 452.774 242.515 479.572 242.51C483.438 242.51 498.183 243.286 501.032 242.343C501.189 242.291 501.334 242.205 501.487 242.143C501.699 242.057 501.914 241.982 502.127 241.901L502.636 241.702L504.1 242.437C504.255 240.955 504.222 240.657 503.644 239.286C502.884 238.637 502.425 238.363 501.44 238.25C500.289 238.118 500.824 238.362 499.967 237.697L500.306 236.569C501.235 235.854 501.814 235.826 502.933 235.609L503.444 235.513C503.668 232.234 499.826 232.259 498.71 230.816C496.684 228.194 499.258 227.658 498.324 225.6C497.324 223.397 495.215 223.004 495.423 220.178C496.524 219.047 497.322 218.153 497.977 216.709C498.077 213.026 493.129 209.346 489.915 208.198C488.458 207.677 486.342 207.581 485.109 206.715C483.403 205.515 481.494 202.366 480.203 200.642L480.612 200.779L479.506 200.807C479.054 201.924 478.698 203.069 478.294 204.204L477.375 204.483C477.046 204.248 476.722 204.006 476.382 203.788C464.599 196.254 468.119 194.067 464.372 183.057C462.973 178.944 456.133 175.905 452.508 174.165C453.484 172.928 454.583 171.873 454.95 170.318C454.145 168.631 452.242 164.311 450.572 163.304C446.323 160.745 443.582 163.8 436.646 157.175C434.457 155.084 433.966 150.428 431.747 148.852C431.133 148.415 428.83 148.045 428.488 147.51C426.886 145.003 429.369 145.063 425.229 141.34C421.549 138.03 418.718 128.875 417.61 124.073C417.448 123.372 417.252 122.694 417.038 122.008C414.654 120.451 414.238 122.096 412.019 122.489Q410.239 120.1 408.558 117.639C408.19 117.528 407.701 117.398 407.374 117.21C406.368 116.632 406.228 116.463 406.061 115.342C406.81 115.671 407.553 115.968 408.318 116.258C409.534 114.941 410.605 113.779 411.435 112.182C408.365 107.641 405.623 109.001 403.041 107.114C400.904 105.551 401.883 101.545 400.765 99.4381C399.586 97.2162 397.164 96.8313 396.285 94.0315C396.243 93.8966 396.211 93.7588 396.174 93.6224C394.883 93.6452 392.171 93.8864 391.099 93.2614C388.585 91.7964 385.097 85.2399 383.958 82.5513C383.446 81.3449 382.156 81.2101 381.511 79.8251C382.133 78.8302 382.674 77.8324 383.209 76.7902L382.818 76.2471L380.312 79.4092L379.202 79.3938L379.158 79.2259L379.275 79.4616C378.822 77.6264 379.865 75.6897 380.163 73.8629C380.421 72.2802 380.16 69.7854 378.951 68.5937C377.576 67.2384 374.853 67.2424 373.056 67.1304C370.003 66.9402 370.672 54.2237 367.754 51.7199C365.934 51.5442 365.115 52.1599 363.474 52.9125C361.581 51.1683 363.117 44.4444 361.758 41.7174C359.708 37.604 360.248 31.675 358.629 27.0833C355.88 19.282 350.426 15.0054 345.916 8.57812C344.268 6.22972 345.701 3.70289 344.219 1.37253C342.583 0.452138 341.34 0.212084 339.484 0Z"/>
	<path fill="#3E4465" d="M314.455 782.088Q308.813 778.547 303.566 774.444Q298.32 770.341 293.524 765.718C270.439 743.488 257.918 713.884 257.294 682.03C256.007 616.417 257.885 550.702 257.385 485.068Q256.964 436.512 257.138 387.955C257.149 370.289 255.711 347.952 258.975 330.874C263.053 309.533 273.723 288.563 288.877 272.963C302.773 258.658 323.072 247.493 342.811 244.203C352.785 242.54 363.319 243.211 373.401 243.262C389.877 243.346 406.383 243.679 422.854 243.37L608.621 243.479L656.422 243.391C668.18 243.354 681.003 242.263 692.5 244.822C713.797 249.562 733.33 261.537 748.56 276.969C757.472 286 764.228 295.895 770.199 307.028C775.676 319.587 780.003 331.65 781.263 345.423C781.958 353.021 781.704 360.763 781.693 368.388L781.624 403.62L781.501 518.282L781.639 632.582L781.638 665.898C781.631 675.683 781.81 685.48 780.422 695.196C780.351 695.349 780.271 695.499 780.209 695.656C778.301 700.512 777.434 709.517 775.288 715.51C764.101 746.753 743.351 772.796 712.971 787.328C701.961 792.596 689.927 796.983 677.725 798.217C662.967 799.709 647.69 798.957 632.849 798.98L556.795 799.244L432.905 799.39L393.772 799.571C384.569 799.679 375.31 800.092 366.117 799.568Q362.715 799.367 359.337 798.92Q355.959 798.473 352.622 797.783Q349.285 797.092 346.007 796.162Q342.728 795.231 339.526 794.066C330.748 790.946 322.562 786.631 314.455 782.088Z"/>
	<path fill="#2E5588" d="M514.462 768.653L519.775 768.368C522.913 770.593 525.065 772.941 526.251 776.671C527.05 779.182 527.328 782.198 525.947 784.563C524.469 787.093 521.652 787.698 518.999 788.291L512.738 788.23C508.817 786.135 507.489 784.364 505.264 780.668C505.123 778.096 504.714 775.056 506.062 772.731C507.762 769.799 511.448 769.319 514.462 768.653Z"/>
	<defs>
		<linearGradient id="gradient_2" gradientUnits="userSpaceOnUse" x1="554.224" y1="768.27173" x2="581.03326" y2="734.03821">
			<stop offset="0" stop-color="#BEE0E1"/>
			<stop offset="1" stop-color="#85EDFA"/>
		</linearGradient>
	</defs>
	<path fill="url(#gradient_2)" d="M583.059 742.047C588.336 745.23 595.926 748.554 602.187 747.122C602.643 747.017 603.089 746.875 603.535 746.739C601.259 750.629 596.29 751.38 594.354 754.96C571.733 755.36 549.043 755.451 526.417 755.39Q528.588 755.058 530.764 754.758C530.7 753.894 530.81 753.6 531.195 752.847Q554.832 749.251 578.049 743.538C579.677 742.848 581.345 742.465 583.059 742.047Z"/>
	<path fill="#F9F8F7" d="M603.535 746.739C605.195 745.163 607.805 743.779 609.799 742.641C626.295 733.233 642.097 735.409 657.837 726.608C666.366 721.839 674.766 715.345 681.446 708.208C688.953 700.189 695.274 691.763 704.002 684.855C718.036 673.748 729.112 671.29 744.516 664.053C744.461 691.163 738.764 710.2 719.115 729.893C707.416 741.619 690.452 752.682 673.667 754.725C665.201 755.756 656.018 755.085 647.47 755.08L606.111 755.03L594.354 754.96C596.29 751.38 601.259 750.629 603.535 746.739Z"/>
	<path fill="#F9F8F7" d="M293.502 588.34C307.079 588.804 321.915 594.336 331.401 604.417C334.266 607.462 337.087 611.913 340.561 614.164C341.438 614.149 341.781 614.026 342.507 613.536C346.91 620.941 351.736 628.572 357.2 635.245L356.649 635.354C353.055 636.038 349.415 636.091 345.807 636.66C336.581 638.115 325.046 641.826 319.361 649.744C314.963 655.87 314.354 664.115 315.716 671.346C319.633 692.149 352.984 724.616 370.6 736.521C385.061 746.294 401.332 751.018 418.623 752.221C420.62 752.36 425.068 751.921 425.72 754.221C422.457 756.232 413.908 754.759 409.84 755.139C409.736 755.144 409.632 755.152 409.529 755.154C401.356 755.273 393.167 755.197 384.993 755.196C377.629 755.195 370.062 755.454 362.757 754.41C347.262 752.195 331.77 743.013 320.776 732.123C306.706 718.186 296.105 698.855 294.057 678.965C292.818 666.929 293.651 654.317 293.654 642.216L293.502 588.34Z"/>
	<path fill="#F3DF8D" d="M357.2 635.245L358.013 636.127C361.208 636.608 366.999 638.929 369.951 638.073C371.419 637.648 371.597 636.581 372.206 635.338C394.769 658.567 419.922 675.17 450.444 686.083C456.001 688.07 462.606 690.999 468.433 691.837C471.692 696.438 492.335 706.831 498.608 708.274C498.675 708.289 498.746 708.28 498.815 708.283C501.093 709.554 503.351 710.795 505.513 712.259C506.105 712.661 505.934 712.525 506.819 712.855C513.99 714.751 522.186 717.761 529.477 718.59C535.255 720.183 541.603 721.549 547.021 724.129C553.037 725.594 567.761 731.194 572.097 735.15C575.978 736.979 579.513 739.644 583.059 742.047C581.345 742.465 579.677 742.848 578.049 743.538Q554.832 749.251 531.195 752.847C530.81 753.6 530.7 753.894 530.764 754.758Q528.588 755.058 526.417 755.39C487.624 755.472 448.608 756.286 409.84 755.139C413.908 754.759 422.457 756.232 425.72 754.221C425.068 751.921 420.62 752.36 418.623 752.221C401.332 751.018 385.061 746.294 370.6 736.521C352.984 724.616 319.633 692.149 315.716 671.346C314.354 664.115 314.963 655.87 319.361 649.744C325.046 641.826 336.581 638.115 345.807 636.66C349.415 636.091 353.055 636.038 356.649 635.354L357.2 635.245Z"/>
	<path fill="#DAD0A4" d="M572.097 735.15C575.978 736.979 579.513 739.644 583.059 742.047C581.345 742.465 579.677 742.848 578.049 743.538C576.734 741.247 574.408 739.7 572.291 738.209L572.567 737.851L574.302 737.818L572.097 735.15Z"/>
	<path fill="#DAD0A4" d="M529.477 718.59C535.255 720.183 541.603 721.549 547.021 724.129C546.109 724.248 545.519 724.284 544.604 724.078C544.362 724.023 544.125 723.95 543.886 723.887L545.037 725.077L544.296 725.395C540.243 724.77 533.424 724.05 530.228 721.434L530.889 720.729L530.854 719.829L529.477 718.59Z"/>
	<path fill="#E9AF62" d="M343.019 665.053C343.75 664.694 344.478 664.347 345.194 663.957C347.183 662.873 348.977 662.949 351.139 663.539C353.099 664.073 354.828 665.37 355.796 667.167C356.673 668.794 356.961 670.648 356.322 672.412C355.748 673.998 354.487 675.227 352.949 675.885C350.255 677.035 346.62 676.487 344.041 675.289C342.956 674.785 341.911 674.129 340.906 673.484C340.906 670.181 341.385 667.948 343.019 665.053Z"/>
	<path fill="#7DAA93" d="M372.206 635.338C394.769 658.567 419.922 675.17 450.444 686.083C456.001 688.07 462.606 690.999 468.433 691.837C471.692 696.438 492.335 706.831 498.608 708.274C498.675 708.289 498.746 708.28 498.815 708.283C501.093 709.554 503.351 710.795 505.513 712.259C506.105 712.661 505.934 712.525 506.819 712.855C496.521 712.813 482.152 710.429 471.836 708.703C438.048 703.051 405.383 681.455 380.116 659.177C372.199 652.197 364.196 644.733 358.013 636.127C361.208 636.608 366.999 638.929 369.951 638.073C371.419 637.648 371.597 636.581 372.206 635.338Z"/>
	<defs>
		<linearGradient id="gradient_3" gradientUnits="userSpaceOnUse" x1="529.27032" y1="539.61707" x2="759.99042" y2="602.38757">
			<stop offset="0" stop-color="#21B3D0"/>
			<stop offset="1" stop-color="#32E3FC"/>
		</linearGradient>
	</defs>
	<path fill="url(#gradient_3)" d="M682.786 413.35C687.348 410.344 692.181 408.589 697.42 407.113C714.057 402.426 729.802 402.878 745.013 411.426L744.631 571.727L744.577 633.48C744.567 643.639 744.871 653.904 744.516 664.053C729.112 671.29 718.036 673.748 704.002 684.855C695.274 691.763 688.953 700.189 681.446 708.208C674.766 715.345 666.366 721.839 657.837 726.608C642.097 735.409 626.295 733.233 609.799 742.641C607.805 743.779 605.195 745.163 603.535 746.739C603.089 746.875 602.643 747.017 602.187 747.122C595.926 748.554 588.336 745.23 583.059 742.047C579.513 739.644 575.978 736.979 572.097 735.15C567.761 731.194 553.037 725.594 547.021 724.129C541.603 721.549 535.255 720.183 529.477 718.59C522.186 717.761 513.99 714.751 506.819 712.855C505.934 712.525 506.105 712.661 505.513 712.259C503.351 710.795 501.093 709.554 498.815 708.283C498.592 706.598 488.045 703.352 485.877 701.223C486.002 699.959 486.191 698.97 487.132 698.028C490.676 694.484 500.725 696.737 505.424 696.765C510.246 696.791 523.872 697.877 527.362 695.719C533.696 694.751 540.109 694.439 546.453 693.385Q550.9 692.671 555.308 691.748Q559.716 690.825 564.075 689.695Q568.435 688.565 572.736 687.231Q577.037 685.896 581.271 684.36Q585.505 682.824 589.661 681.09Q593.817 679.356 597.887 677.428Q601.957 675.5 605.932 673.382Q609.906 671.263 613.776 668.96C619.528 665.563 625.811 662.338 631.038 658.189C645.72 646.535 657.832 632.689 668.9 617.664C674.306 610.324 680.092 603.133 684.83 595.333C699.286 571.53 703.278 545.963 706.467 518.898C707.88 475.358 702.955 452.258 682.786 413.35Z"/>
	<path fill="#CDF2F0" d="M632.733 706.179C633.083 706.26 633.525 706.34 633.834 706.525C634.916 707.176 634.979 707.62 635.188 708.751C634.685 710.33 633.888 710.913 632.651 711.901C631.238 711.217 630.674 711.195 629.965 709.754C630.342 708.212 631.636 707.25 632.733 706.179Z"/>
	<path fill="#40DBF0" d="M529.011 707.007C530.311 706.855 531 706.807 532.212 707.331L532.413 708.218C531.593 709.78 530.423 710.225 528.922 710.98C527.574 710.623 526.413 710.407 525.353 709.436C526.174 708.112 527.64 707.706 529.011 707.007Z"/>
	<path fill="#40DBF0" d="M621.526 687.316C622.248 687.493 622.304 687.695 622.806 688.212C621.494 691.606 611.857 695.771 608.673 697.328C608.377 697.358 608.089 697.21 607.801 697.136C608.778 695.374 619.063 689.083 621.526 687.316Z"/>
	<path fill="#CDF2F0" d="M595.311 691.143C601.096 688.398 606.131 684.019 611.961 681.586C614.035 680.72 615.192 680.957 617.241 681.748C614.57 685.475 601.746 691.411 597.258 692.229C596.418 691.962 595.961 691.739 595.311 691.143Z"/>
	<path fill="#CDF2F0" d="M585.855 705.598C587.056 706.924 587.481 708.823 588.032 710.5C584.386 712.713 580.47 715.103 576.184 715.706C575.501 715.091 574.256 714.038 573.864 713.204C573.557 712.55 573.45 712.003 573.778 711.353C575.292 708.353 582.9 706.648 585.855 705.598Z"/>
	<path fill="#CDF2F0" d="M697.949 651.792C699.002 652.347 698.992 652.82 699.506 653.856C699.501 654.6 699.477 655.258 699.152 655.946C697.065 660.358 689.989 665.046 685.412 666.426C684.689 665.709 684.149 665.028 683.594 664.173C683.651 664.02 683.694 663.861 683.765 663.714C685.742 659.628 693.857 653.656 697.949 651.792Z"/>
	<defs>
		<linearGradient id="gradient_4" gradientUnits="userSpaceOnUse" x1="646.08014" y1="653.9801" x2="605.66669" y2="608.30829">
			<stop offset="0" stop-color="#1488A8"/>
			<stop offset="1" stop-color="#2DADCC"/>
		</linearGradient>
	</defs>
	<path fill="url(#gradient_4)" d="M706.467 518.898C710.416 523.551 711.269 533.37 710.744 539.373C706.593 586.841 678.724 628.887 642.521 658.719C637.873 662.549 632.889 666.017 627.88 669.356C624.691 671.482 620.987 673.407 618.234 676.073L618.498 676.744L620.778 677.284L621.09 677.974C620.108 678.775 619.127 679.376 618.037 680.012C617.741 680.59 617.439 681.128 617.241 681.748C615.192 680.957 614.035 680.72 611.961 681.586C606.131 684.019 601.096 688.398 595.311 691.143L593.721 691.532C594.353 690.609 594.797 690.297 595.685 689.654C595.765 689.596 595.843 689.536 595.921 689.477C586.612 686.62 579.619 691.361 571.566 695.476L571.275 696.036C573.013 696.244 574.677 696.203 576.424 696.142C567.5 698.682 539.909 704.903 531.339 703.339C526.966 702.541 523.021 699.689 518.652 698.782C514.325 697.883 509.667 697.873 505.424 696.765C510.246 696.791 523.872 697.877 527.362 695.719C533.696 694.751 540.109 694.439 546.453 693.385Q550.9 692.671 555.308 691.748Q559.716 690.825 564.075 689.695Q568.435 688.565 572.736 687.231Q577.037 685.896 581.271 684.36Q585.505 682.824 589.661 681.09Q593.817 679.356 597.887 677.428Q601.957 675.5 605.932 673.382Q609.906 671.263 613.776 668.96C619.528 665.563 625.811 662.338 631.038 658.189C645.72 646.535 657.832 632.689 668.9 617.664C674.306 610.324 680.092 603.133 684.83 595.333C699.286 571.53 703.278 545.963 706.467 518.898Z"/>
	<path fill="#40DBF0" d="M293.045 383.967Q292.649 379.451 292.551 374.918C292.01 346.005 292.633 324.616 314.178 302.457C327.05 289.217 344.729 279.764 363.427 279.59C385.167 279.388 406.971 279.865 428.723 279.87L581.579 279.759L639.18 279.678C650.678 279.629 663.437 278.412 674.719 280.537C691.566 283.71 707.588 292.721 719.717 304.722C736.133 320.963 744.5 341.131 744.581 364.116C745.34 369.811 745.007 375.821 745.01 381.565L745.013 411.426C729.802 402.878 714.057 402.426 697.42 407.113C692.181 408.589 687.348 410.344 682.786 413.35C674.774 397.861 661.753 383.25 649.191 371.306Q647.634 369.826 646.045 368.38Q644.456 366.933 642.836 365.522Q641.216 364.111 639.566 362.735Q637.916 361.359 636.236 360.019Q634.557 358.679 632.848 357.376Q631.14 356.072 629.404 354.806Q627.668 353.54 625.905 352.312Q624.142 351.084 622.353 349.895Q620.564 348.705 618.749 347.555Q616.935 346.404 615.096 345.294Q613.256 344.183 611.394 343.112Q609.531 342.041 607.646 341.011Q605.76 339.981 603.853 338.992Q601.946 338.002 600.017 337.055Q598.089 336.107 596.141 335.202Q594.192 334.296 592.225 333.433Q590.257 332.57 588.271 331.749Q586.286 330.929 584.283 330.152Q582.279 329.375 580.26 328.641Q578.24 327.908 576.206 327.218Q574.171 326.529 572.121 325.883Q570.072 325.238 568.009 324.637Q565.947 324.036 563.871 323.48Q561.796 322.924 559.709 322.413Q557.622 321.902 555.525 321.437Q553.427 320.971 551.32 320.551Q549.213 320.131 547.097 319.757Q544.982 319.382 542.858 319.054Q540.735 318.726 538.605 318.443Q536.475 318.161 534.34 317.925Q532.204 317.689 530.064 317.499Q527.924 317.309 525.78 317.166C471.548 313.879 420.036 333.479 379.589 369.22C357.847 390.891 341.861 414.224 331.083 442.981C330.246 445.572 329.176 448.248 328.655 450.917C313.44 446.477 303.612 439.096 292.632 427.865C292.467 421.526 292.129 414.859 292.998 408.574C292.619 400.396 292.872 392.149 293.045 383.967Z"/>
	<path fill="#CDF2F0" d="M386.749 312.924C388.486 312.842 389.644 312.787 391.139 313.83C391.872 315.083 391.833 315.063 391.579 316.5C390.684 317.899 389.472 318.142 387.985 318.645L387.132 318.868C385.679 319.262 384.546 319.815 383.065 319.204C382.658 318.601 382.361 318.494 382.533 317.715C383.025 315.486 384.999 314.157 386.749 312.924Z"/>
	<path fill="#CDF2F0" d="M673.201 323.182C674.248 323.437 675.097 323.655 675.949 324.368C680.089 327.834 682.9 334.085 683.431 339.36C682.594 339.426 682.18 339.503 681.419 339.093C677.181 336.812 674.042 327.782 673.201 323.182Z"/>
	<path fill="#CDF2F0" d="M377.252 320.092C378.495 319.976 379.55 320.055 380.782 320.191L381.723 321.545C379.368 326.523 373.494 329.594 368.312 330.887C366.754 331.275 365.004 331.338 363.511 331.907C362.008 332.479 360.53 333.693 359.216 334.604C358.241 335.088 358.284 335.274 357.162 335.034C357.081 333.924 356.939 334.339 357.526 333.425C360.96 328.08 371.169 321.531 377.252 320.092Z"/>
	<path fill="#F9F8F7" d="M649.191 371.306C652.979 368.606 656.425 365.405 660.202 362.668C670.736 355.033 683.935 349.24 696.984 348.134C715.537 346.562 730.484 352.13 744.581 364.116C745.34 369.811 745.007 375.821 745.01 381.565L745.013 411.426C729.802 402.878 714.057 402.426 697.42 407.113C692.181 408.589 687.348 410.344 682.786 413.35C674.774 397.861 661.753 383.25 649.191 371.306Z"/>
	<path fill="#F9F8F7" d="M293.045 383.967C294.3 381.005 295.64 378.03 297.437 375.351C304.463 364.88 316.367 358.126 328.599 355.813C348.191 352.109 363.636 358.449 379.589 369.22C357.847 390.891 341.861 414.224 331.083 442.981C330.246 445.572 329.176 448.248 328.655 450.917C313.44 446.477 303.612 439.096 292.632 427.865C292.467 421.526 292.129 414.859 292.998 408.574C292.619 400.396 292.872 392.149 293.045 383.967Z"/>
	<path fill="#40DBF0" d="M292.998 408.574C302.474 427.73 313.542 432.893 331.083 442.981C330.246 445.572 329.176 448.248 328.655 450.917C313.44 446.477 303.612 439.096 292.632 427.865C292.467 421.526 292.129 414.859 292.998 408.574Z"/>
	<path fill="#3E4465" d="M379.589 369.22C420.036 333.479 471.548 313.879 525.78 317.166Q527.924 317.309 530.064 317.499Q532.204 317.689 534.34 317.925Q536.475 318.161 538.605 318.443Q540.735 318.726 542.858 319.054Q544.982 319.382 547.097 319.757Q549.213 320.131 551.32 320.551Q553.427 320.971 555.525 321.437Q557.622 321.902 559.709 322.413Q561.796 322.924 563.871 323.48Q565.947 324.036 568.009 324.637Q570.072 325.238 572.121 325.883Q574.171 326.529 576.206 327.218Q578.24 327.908 580.26 328.641Q582.279 329.375 584.283 330.152Q586.286 330.929 588.271 331.75Q590.257 332.57 592.225 333.433Q594.192 334.296 596.141 335.202Q598.089 336.107 600.017 337.055Q601.946 338.002 603.853 338.992Q605.76 339.981 607.646 341.011Q609.531 342.041 611.394 343.112Q613.256 344.183 615.096 345.294Q616.935 346.404 618.749 347.555Q620.564 348.705 622.353 349.895Q624.142 351.084 625.905 352.312Q627.668 353.54 629.404 354.806Q631.14 356.072 632.848 357.376Q634.557 358.679 636.236 360.019Q637.916 361.359 639.566 362.735Q641.216 364.111 642.836 365.522Q644.456 366.933 646.045 368.38Q647.634 369.826 649.191 371.306C661.753 383.25 674.774 397.861 682.786 413.35C702.955 452.258 707.88 475.358 706.467 518.898C703.278 545.963 699.286 571.53 684.83 595.333C680.092 603.133 674.306 610.324 668.9 617.664C657.832 632.689 645.72 646.535 631.038 658.189C625.811 662.338 619.528 665.563 613.776 668.96Q609.906 671.263 605.932 673.382Q601.957 675.5 597.887 677.428Q593.818 679.356 589.661 681.09Q585.505 682.824 581.271 684.36Q577.037 685.896 572.736 687.231Q568.435 688.565 564.075 689.695Q559.716 690.825 555.308 691.748Q550.9 692.671 546.453 693.385C540.109 694.439 533.696 694.751 527.362 695.719C523.872 697.877 510.246 696.791 505.424 696.765C500.725 696.737 490.676 694.484 487.132 698.028C486.191 698.97 486.002 699.959 485.877 701.223C488.045 703.352 498.592 706.598 498.815 708.283C498.746 708.28 498.675 708.289 498.608 708.274C492.335 706.831 471.692 696.438 468.433 691.837C462.606 690.999 456.001 688.07 450.444 686.083C419.922 675.17 394.769 658.567 372.206 635.338C371.597 636.581 371.419 637.648 369.951 638.073C366.999 638.929 361.208 636.608 358.013 636.127L357.2 635.245C351.736 628.572 346.91 620.941 342.507 613.536C341.781 614.026 341.438 614.149 340.561 614.164C337.087 611.913 334.266 607.462 331.401 604.417C321.915 594.336 307.079 588.804 293.502 588.34C293.351 581.657 293.412 574.954 293.371 568.269C292.705 553.143 293.181 537.774 293.085 522.616L292.632 427.865C303.612 439.096 313.44 446.477 328.655 450.917C329.176 448.248 330.246 445.572 331.083 442.981C341.861 414.224 357.847 390.891 379.589 369.22Z"/>
	<path fill="#3D99BB" d="M468.433 691.837C478.961 693.991 490.147 695.406 500.898 695.585C507.112 695.689 522.425 694.581 527.362 695.719C523.872 697.877 510.246 696.791 505.424 696.765C500.725 696.737 490.676 694.484 487.132 698.028C486.191 698.97 486.002 699.959 485.877 701.223C488.045 703.352 498.592 706.598 498.815 708.283C498.746 708.28 498.675 708.289 498.608 708.274C492.335 706.831 471.692 696.438 468.433 691.837Z"/>
	<defs>
		<linearGradient id="gradient_5" gradientUnits="userSpaceOnUse" x1="377.94885" y1="537.94409" x2="284.38873" y2="529.31757">
			<stop offset="0" stop-color="#28B2D1"/>
			<stop offset="1" stop-color="#29D6F4"/>
		</linearGradient>
	</defs>
	<path fill="url(#gradient_5)" d="M292.632 427.865C303.612 439.096 313.44 446.477 328.655 450.917C314.166 501.415 319.352 552.1 344.8 598.048C352.375 611.728 361.762 623.762 372.206 635.338C371.597 636.581 371.419 637.648 369.951 638.073C366.999 638.929 361.208 636.608 358.013 636.127L357.2 635.245C351.736 628.572 346.91 620.941 342.507 613.536C341.781 614.026 341.438 614.149 340.561 614.164C337.087 611.913 334.266 607.462 331.401 604.417C321.915 594.336 307.079 588.804 293.502 588.34C293.351 581.657 293.412 574.954 293.371 568.269C292.705 553.143 293.181 537.774 293.085 522.616L292.632 427.865Z"/>
	<path fill="#40DBF0" d="M293.371 568.269C311.419 577.23 323.653 583.936 335.333 601.208C337.851 604.932 340.88 609.332 342.507 613.536C341.781 614.026 341.438 614.149 340.561 614.164C337.087 611.913 334.266 607.462 331.401 604.417C321.915 594.336 307.079 588.804 293.502 588.34C293.351 581.657 293.412 574.954 293.371 568.269Z"/>
	<path fill="#F9F8F7" d="M434.433 654.419C396.097 634.398 363.509 598.721 350.617 557.185C346.808 544.914 343.9 532.24 342.854 519.422C340.404 489.392 347.096 455.413 361.222 428.647C382.448 388.43 422.357 359.035 465.319 345.936C509.561 332.447 557.51 339.156 598.055 360.706C636.719 381.255 666.528 419.341 679.049 460.962Q679.605 462.861 680.114 464.773Q680.624 466.684 681.086 468.608Q681.549 470.531 681.965 472.466Q682.38 474.4 682.749 476.344Q683.117 478.288 683.439 480.24Q683.76 482.192 684.033 484.152Q684.307 486.111 684.532 488.077Q684.758 490.042 684.936 492.013Q685.114 493.983 685.243 495.957Q685.373 497.932 685.455 499.908Q685.536 501.885 685.57 503.863Q685.604 505.841 685.589 507.82Q685.574 509.798 685.512 511.776Q685.449 513.753 685.338 515.729Q685.227 517.704 685.068 519.676Q684.909 521.648 684.702 523.616Q684.495 525.583 684.241 527.545Q683.986 529.507 683.683 531.463Q683.381 533.418 683.031 535.365Q682.681 537.312 682.284 539.25Q681.887 541.189 681.442 543.117Q680.998 545.044 680.507 546.961Q680.016 548.878 679.478 550.782Q678.941 552.686 678.357 554.576Q677.773 556.466 677.143 558.342Q676.514 560.218 675.839 562.077Q675.164 563.937 674.444 565.78Q673.723 567.622 672.959 569.447Q672.194 571.272 671.385 573.077Q670.576 574.883 669.723 576.668Q668.87 578.453 667.974 580.217Q667.079 581.981 666.14 583.723C644.3 624.325 605.276 653.667 561.338 666.696C518.482 679.404 478.249 673.923 437.922 656.244L434.433 654.419Z"/>
	<path fill="#5F7E95" d="M518.929 350.029C515.545 351.288 519.198 369.036 517.077 372.35C515.802 372.732 515.742 372.743 514.489 372.298C513.211 368.863 513.367 351.203 514.405 347.428L514.461 348.918C514.645 348.857 514.828 348.793 515.014 348.736C515.999 348.434 517.292 349.097 518.165 349.589L518.929 350.029Z"/>
	<path fill="#5F7E95" d="M653.523 501.548C661.281 501.514 669.337 501.04 677.054 501.721C677.705 503.142 677.449 504.7 677.376 506.222C669.862 506.286 661.342 507.139 653.972 505.964C653.235 504.727 653.511 502.951 653.523 501.548Z"/>
	<path fill="#5F7E95" d="M660.116 509.743C664.884 509.678 670.445 509.05 675.103 509.939C676.758 510.255 677.422 510.726 678.382 512.083C678.502 513.333 677.788 514.168 677.15 515.174C675.659 515.698 673.733 515.495 672.14 515.501L653.564 515.476C653.488 513.713 653.223 512.021 654.035 510.393C655.634 509.32 658.244 509.72 660.116 509.743Z"/>
	<path fill="#5F7E95" d="M350.508 501.139C359.068 501.099 368.432 500.256 376.895 501.229C377.02 503 377.078 504.593 376.842 506.355Q363.813 506.162 350.784 506.407C350.103 505.195 350.497 502.586 350.508 501.139Z"/>
	<path fill="#5F7E95" d="M350.459 509.819C359.093 510.145 368.068 509.179 376.628 510.161C377.287 511.71 377.062 513.571 377.03 515.234C368.365 515.511 359.489 515.664 350.828 515.312C350.253 513.697 350.486 511.538 350.459 509.819Z"/>
	<path fill="#5F7E95" d="M514.405 347.428C517.774 346.683 521.718 347.067 525.169 347.226C525.106 351.219 525.67 369.838 524.495 372.334C523.389 372.92 522.581 372.773 521.37 372.703C520.049 371.611 519.678 370.75 519.467 369.039C518.847 364.018 520.673 353.998 518.929 350.029L518.165 349.589C517.292 349.097 515.999 348.434 515.014 348.736C514.828 348.793 514.645 348.857 514.461 348.918L514.405 347.428Z"/>
	<path fill="#5F7E95" d="M504.195 347.198L510.179 347.176C509.948 351.767 510.927 370.358 509.359 372.944C507.458 373.019 505.613 373.229 503.789 372.581C503.715 372.066 503.628 371.552 503.584 371.033C503.355 368.337 503.016 349.754 503.537 347.984C503.633 347.656 503.975 347.46 504.195 347.198Z"/>
	<path fill="#3D99BB" d="M651.842 420.922C654.048 421.597 655.732 425.245 656.865 427.165C650.878 431.37 644.463 435.044 638.35 439.083C636.508 438.423 634.835 434.668 633.847 433.021C638.933 427.984 645.738 424.577 651.842 420.922Z"/>
	<path fill="#3D99BB" d="M594.618 368.935C597.15 369.752 599.539 370.716 601.973 371.782Q595.369 383.053 588.521 394.177C586.332 393.353 583.953 391.437 581.96 390.158C585.675 382.972 590.183 375.704 594.618 368.935Z"/>
	<path fill="#3D99BB" d="M509.941 637.518C512.557 637.423 515.187 637.474 517.805 637.469C518.112 646.264 518.137 655.19 517.641 663.976L510.037 664.103C509.33 655.333 509.744 646.312 509.941 637.518Z"/>
	<path fill="#3D99BB" d="M392.455 572.416L393.339 572.685C394.976 574.581 395.956 576.872 397.06 579.103C389.918 583.732 381.305 587.535 374.875 593.024C372.919 590.741 371.445 588.307 369.918 585.73C377.515 581.438 384.895 576.775 392.455 572.416Z"/>
	<path fill="#3D99BB" d="M431.148 367.869C433.393 368.724 443.705 386.364 445.822 389.481C443.56 390.963 441.112 392.146 438.715 393.393L438.047 393.255C433.281 386.265 428.747 379.1 424.126 372.012C426.338 370.399 428.743 369.164 431.148 367.869Z"/>
	<path fill="#3D99BB" d="M632.19 573.954C640.227 577.34 648.117 581.142 656.141 584.586C654.829 587.383 653.23 590.101 651.763 592.822C651.449 592.879 651.137 593.039 650.821 592.994C649.909 592.866 629.955 581.581 628.053 580.327C629.39 578.18 630.81 576.075 632.19 573.954Z"/>
	<path fill="#3D99BB" d="M586.784 617.845L587.558 618.029C592.317 621.905 600.091 634.922 603.556 640.58L597.805 644.631C596.842 645.093 597.374 644.986 596.192 644.852C592.419 641.045 584.86 627.609 581.299 622.216C583.045 620.671 584.946 619.278 586.784 617.845Z"/>
	<path fill="#3D99BB" d="M373.576 422.794C382.024 427.937 391.342 431.858 399.308 437.741C397.215 439.944 395.496 442.1 393.854 444.658C389.422 443.392 373.502 433.926 368.596 431.043C370.095 428.199 371.857 425.509 373.576 422.794Z"/>
	<path fill="#256C90" d="M446.347 502.113C449.82 502.533 455.765 504.378 458.749 502.608L459.421 501.364L459.049 504.05C457.193 522.204 460.559 530.727 469.27 546.377C465.591 549.245 464.226 553.051 461.876 556.885Q460.856 555.654 459.861 554.403C447.885 539.31 443.929 521.201 446.13 502.315L446.347 502.113Z"/>
	<path fill="#DAD0A4" d="M405.48 454.4C414.733 460.824 423.924 467.416 433.395 473.515C439.247 477.284 445.702 480.63 451.295 484.73C454.408 487.554 458.082 489.402 461.837 491.222Q460.747 496.321 459.421 501.364L458.749 502.608C455.765 504.378 449.82 502.533 446.347 502.113L446.13 502.315C443.483 500.024 439.768 498.774 436.971 496.499C424.636 486.465 404.791 468.767 394.882 456.686C397.286 457.15 400.482 458.541 402.867 457.795C404.249 457.363 404.868 455.598 405.48 454.4Z"/>
	<path fill="#2E5588" d="M451.295 484.73C454.408 487.554 458.082 489.402 461.837 491.222Q460.747 496.321 459.421 501.364L458.749 502.608C455.765 504.378 449.82 502.533 446.347 502.113C447.236 496.203 448.668 490.124 451.295 484.73Z"/>
	<path fill="#F9F8F7" d="M461.837 491.222C470.103 495.642 480.216 503.745 489.103 505.933C487.531 510.52 487.382 514.24 487.558 519.05L489.202 524.11C483.349 528.609 478.881 534.875 474.291 540.607C472.786 542.487 471.2 544.954 469.27 546.377C460.559 530.727 457.193 522.204 459.049 504.05L459.421 501.364Q460.747 496.321 461.837 491.222Z"/>
	<path fill="#DAD0A4" d="M461.837 491.222C470.103 495.642 480.216 503.745 489.103 505.933C487.531 510.52 487.382 514.24 487.558 519.05C486.331 519.31 485.34 519.212 484.103 519.108C478.672 512.507 465.544 510.925 459.049 504.05L459.421 501.364Q460.747 496.321 461.837 491.222Z"/>
	<path fill="#DAD0A4" d="M485.113 576.526C488.512 579.318 493.026 580.354 497.255 581.252C498.457 583.213 498.881 584.53 498.331 586.819C497.412 590.648 494.744 594.35 492.443 597.486C484.213 608.701 474.105 618.884 464.707 629.122C456.395 638.178 447.81 648.854 437.922 656.244L434.433 654.419C434.825 654.039 435.17 653.64 435.502 653.207C436.152 652.36 436.795 651.464 437.102 650.43C438.004 647.395 438.968 636.758 438.514 633.502L437.78 633.387C437.151 634.053 436.786 634.318 435.917 634.692C435.661 634.801 435.399 634.894 435.14 634.996C439.658 628.623 445.723 622.566 450.929 616.709C462.657 603.513 474.487 590.656 485.113 576.526Z"/>
	<path fill="#DD454E" d="M405.48 454.4C403.25 452.872 398.686 450.519 398.035 447.764L398.405 446.415C400.851 445.126 406.112 447.118 408.711 447.924C426.156 453.334 443.968 460.675 460.469 468.466C463.71 470.103 467.003 472.044 470.368 473.385L480.2 478.846C486.09 482.383 492.412 485.374 497.975 489.41L498.017 495.89C494.814 498.96 491.41 502.101 489.103 505.933C480.216 503.745 470.103 495.642 461.837 491.222C458.082 489.402 454.408 487.554 451.295 484.73C445.702 480.63 439.247 477.284 433.395 473.515C423.924 467.416 414.733 460.824 405.48 454.4Z"/>
	<path fill="#40DBF0" d="M508.283 536.055C512.971 535.54 517.626 534.8 521.989 532.936C523.214 534.146 525.428 534.293 527.086 534.619L527.146 534.897L529.048 535.501C534.14 537.966 539.374 540.887 544.82 542.456C546.603 543.049 548.391 543.72 550.201 544.216C554.077 546.518 557.64 548.276 561.972 549.624L564.686 546.409C566.705 548.001 570.076 550.063 570.573 552.729C570.772 553.794 570.158 555.143 569.448 555.927C568.975 556.45 568.391 556.871 567.819 557.276C565.206 558.014 560.533 563.418 558.192 565.281C540.565 579.312 519.451 585.028 497.255 581.252C493.026 580.354 488.512 579.318 485.113 576.526L489.744 569.51C491.122 566.509 493.669 563.458 495.528 560.685C497.325 561.244 499.146 561.908 501 562.239C501.144 562.043 501.247 561.81 501.43 561.65C501.953 561.193 502.744 560.986 503.33 560.472C505.623 558.461 506.718 555.407 507.749 552.633C505.441 549.439 507.567 548.575 507.724 545.277C507.737 545.001 507.739 544.725 507.747 544.448L506.638 543.661C507.512 541.091 507.946 538.733 508.283 536.055Z"/>
	<path fill="#2E5588" d="M550.201 544.216C554.077 546.518 557.64 548.276 561.972 549.624C548.118 564.052 530.891 572.758 510.659 573.173C504.465 573.3 495.014 573.282 489.744 569.51C491.122 566.509 493.669 563.458 495.528 560.685C497.325 561.244 499.146 561.908 501 562.239C504.192 562.992 507.314 563.109 510.575 562.981C526.483 562.355 539.466 555.822 550.201 544.216Z"/>
	<path fill="#40DBF0" d="M508.283 536.055C512.971 535.54 517.626 534.8 521.989 532.936C523.214 534.146 525.428 534.293 527.086 534.619L527.146 534.897L529.048 535.501C534.14 537.966 539.374 540.887 544.82 542.456C546.603 543.049 548.391 543.72 550.201 544.216C539.466 555.822 526.483 562.355 510.575 562.981C507.314 563.109 504.192 562.992 501 562.239C501.144 562.043 501.247 561.81 501.43 561.65C501.953 561.193 502.744 560.986 503.33 560.472C505.623 558.461 506.718 555.407 507.749 552.633C505.441 549.439 507.567 548.575 507.724 545.277C507.737 545.001 507.739 544.725 507.747 544.448L506.638 543.661C507.512 541.091 507.946 538.733 508.283 536.055Z"/>
	<path fill="#52878F" d="M508.283 536.055C512.971 535.54 517.626 534.8 521.989 532.936C523.214 534.146 525.428 534.293 527.086 534.619L527.146 534.897L529.048 535.501C523.7 539.149 516.8 541.062 510.544 542.506C509.648 545.853 508.907 549.375 507.749 552.633C505.441 549.439 507.567 548.575 507.724 545.277C507.737 545.001 507.739 544.725 507.747 544.448L506.638 543.661C507.512 541.091 507.946 538.733 508.283 536.055Z"/>
	<path fill="#5F7E95" d="M508.283 536.055C512.971 535.54 517.626 534.8 521.989 532.936C523.214 534.146 525.428 534.293 527.086 534.619L527.146 534.897C522.443 535.808 512.847 537.168 509.93 541.307C509.12 542.457 510.016 543.886 509.054 545.068C508.563 544.888 508.159 544.777 507.747 544.448L506.638 543.661C507.512 541.091 507.946 538.733 508.283 536.055Z"/>
	<path fill="#DAD0A4" d="M575.869 481.284C581.03 476.592 587.3 472.35 593.05 468.386C598.259 471.087 638.043 473.938 647.196 475.139C653.635 475.224 660.159 476.542 666.548 477.304C656.693 483.703 646.897 490.392 636.649 496.147C625.655 502.321 614.161 507.616 603.019 513.514C599.097 515.591 583.001 521.972 581.389 523.925L580.928 523.969C577.253 523.725 573.627 523.27 569.977 522.786C570.685 509.517 570.243 501.924 565.931 489.294C569.203 486.445 572.91 484.55 575.869 481.284Z"/>
	<path fill="#2E5588" d="M575.869 481.284C580.529 491.061 582.058 500.085 582.175 510.868C582.001 515.313 581.643 519.578 580.928 523.969C577.253 523.725 573.627 523.27 569.977 522.786C570.685 509.517 570.243 501.924 565.931 489.294C569.203 486.445 572.91 484.55 575.869 481.284Z"/>
	<path fill="#40DBF0" d="M460.469 468.466C470.267 456.808 485.907 449.753 500.77 447.598C520.187 444.783 539.361 448.811 555.155 460.56C557.546 462.18 559.574 463.937 561.667 465.921C558.954 467.92 556.263 469.955 553.455 471.819C552.909 472.215 552.304 472.726 551.718 473.052C548.782 474.705 546.254 476.925 543.884 479.305C537.025 485.124 528.959 489.428 523.152 496.416C520.918 495.001 518.78 493.756 516.219 492.987C509.559 490.988 503.862 492.613 498.017 495.89L497.975 489.41C492.412 485.374 486.09 482.383 480.2 478.846L470.368 473.385C467.003 472.044 463.71 470.103 460.469 468.466Z"/>
	<path fill="#40DBF0" d="M555.155 460.56C557.546 462.18 559.574 463.937 561.667 465.921C558.954 467.92 556.263 469.955 553.455 471.819C553.568 471.524 553.644 471.212 553.796 470.936C555.282 468.225 554.762 466.017 555.702 463.217C555.783 462.977 555.91 462.754 556.014 462.523L555.155 460.56Z"/>
	<path fill="#2E5588" d="M470.368 473.385Q471.528 472.263 472.744 471.204C484.6 460.949 502.165 456.828 517.523 458.12C529.137 459.096 543.964 463.869 551.718 473.052C548.782 474.705 546.254 476.925 543.884 479.305C536.58 473.944 529.731 469.836 520.652 468.413C505.629 466.059 492.32 470.018 480.2 478.846L470.368 473.385Z"/>
	<path fill="#F9F8F7" d="M480.2 478.846C492.32 470.018 505.629 466.059 520.652 468.413C529.731 469.836 536.58 473.944 543.884 479.305C537.025 485.124 528.959 489.428 523.152 496.416C520.918 495.001 518.78 493.756 516.219 492.987C509.559 490.988 503.862 492.613 498.017 495.89L497.975 489.41C492.412 485.374 486.09 482.383 480.2 478.846Z"/>
	<path fill="#DD454E" d="M489.202 524.11C492.266 529.52 495.91 533.495 502.099 535.242C504.122 535.813 506.187 536.056 508.283 536.055C507.946 538.733 507.512 541.091 506.638 543.661L507.747 544.448C507.739 544.725 507.737 545.001 507.724 545.277C507.567 548.575 505.441 549.439 507.749 552.633C506.718 555.407 505.623 558.461 503.33 560.472C502.744 560.986 501.953 561.193 501.43 561.65C501.247 561.81 501.144 562.043 501 562.239C499.146 561.908 497.325 561.244 495.528 560.685C493.669 563.458 491.122 566.509 489.744 569.51L485.113 576.526C474.487 590.656 462.657 603.513 450.929 616.709C445.723 622.566 439.658 628.623 435.14 634.996C432.16 638.292 429.197 641.736 425.657 644.442L422.896 640.626C425.012 633.821 428.313 627.063 431.091 620.478C437.837 604.486 444.768 588.328 452.705 572.891C455.517 567.423 459.006 562.326 461.876 556.885C464.226 553.051 465.591 549.245 469.27 546.377C471.2 544.954 472.786 542.487 474.291 540.607C478.881 534.875 483.349 528.609 489.202 524.11Z"/>
	<path fill="#3D99BB" d="M506.638 543.661L507.747 544.448C507.739 544.725 507.737 545.001 507.724 545.277C507.567 548.575 505.441 549.439 507.749 552.633C506.718 555.407 505.623 558.461 503.33 560.472C502.744 560.986 501.953 561.193 501.43 561.65C501.247 561.81 501.144 562.043 501 562.239C499.146 561.908 497.325 561.244 495.528 560.685C498.971 554.866 503.519 549.613 506.638 543.661Z"/>
	<path fill="#E26464" d="M536.879 521.712C547.601 521.092 559.311 521.415 569.977 522.786C573.627 523.27 577.253 523.725 580.928 523.969L581.389 523.925C603.271 525.841 625.639 524.666 647.411 527.449C640.171 536.706 633.303 545.887 627.3 556.005C626.693 557.141 626.127 558.269 625.324 559.283Q606.855 558.31 588.364 557.985C581.643 557.853 574.485 558.149 567.819 557.276C568.391 556.871 568.975 556.45 569.448 555.927C570.158 555.143 570.772 553.794 570.573 552.729C570.076 550.063 566.705 548.001 564.686 546.409L561.972 549.624C557.64 548.276 554.077 546.518 550.201 544.216C548.391 543.72 546.603 543.049 544.82 542.456C539.374 540.887 534.14 537.966 529.048 535.501L527.146 534.897L527.086 534.619C525.428 534.293 523.214 534.146 521.989 532.936C525.994 529.974 528.532 526.536 530.734 522.122C532.822 522.097 534.811 522.045 536.879 521.712Z"/>
	<path fill="#3E4465" d="M544.82 542.456C551.473 542.791 558.355 544.324 564.686 546.409L561.972 549.624C557.64 548.276 554.077 546.518 550.201 544.216C548.391 543.72 546.603 543.049 544.82 542.456Z"/>
	<path fill="#DD454E" d="M536.879 521.712C547.601 521.092 559.311 521.415 569.977 522.786C573.627 523.27 577.253 523.725 580.928 523.969L581.389 523.925C603.271 525.841 625.639 524.666 647.411 527.449C640.171 536.706 633.303 545.887 627.3 556.005C627.747 550.31 636.588 542.273 636.824 538.889C632.237 537.79 625.858 538.549 621.067 538.405Q607.741 537.945 594.436 537.066C580.295 536.202 566.096 535.471 551.97 534.412C545.677 533.941 535.595 532.082 529.558 532.904C528.273 533.079 527.829 533.619 527.086 534.619C525.428 534.293 523.214 534.146 521.989 532.936C525.994 529.974 528.532 526.536 530.734 522.122C532.822 522.097 534.811 522.045 536.879 521.712Z"/>
	<path fill="#DD454E" d="M561.667 465.921C572.972 457.639 632.391 419.402 642.3 419.256C642.751 420.082 642.755 419.727 642.533 420.564C640.336 428.85 601.625 461.462 593.05 468.386C587.3 472.35 581.03 476.592 575.869 481.284C572.91 484.55 569.203 486.445 565.931 489.294C570.243 501.924 570.685 509.517 569.977 522.786C559.311 521.415 547.601 521.092 536.879 521.712C534.811 522.045 532.822 522.097 530.734 522.122C528.532 526.536 525.994 529.974 521.989 532.936C517.626 534.8 512.971 535.54 508.283 536.055C506.187 536.056 504.122 535.813 502.099 535.242C495.91 533.495 492.266 529.52 489.202 524.11L487.558 519.05C487.382 514.24 487.531 510.52 489.103 505.933C491.41 502.101 494.814 498.96 498.017 495.89C503.862 492.613 509.559 490.988 516.219 492.987C518.78 493.756 520.918 495.001 523.152 496.416C528.959 489.428 537.025 485.124 543.884 479.305C546.254 476.925 548.782 474.705 551.718 473.052C552.304 472.726 552.909 472.215 553.455 471.819C556.263 469.955 558.954 467.92 561.667 465.921Z"/>
	<path fill="#DD454E" d="M529.552 504.04C533.955 504.011 539.773 504.252 543.929 502.762C544.906 502.412 545.536 502.289 546.601 502.348C542.357 505.878 536.512 507.65 531.683 510.262C531.072 508.163 530.278 506.103 529.552 504.04Z"/>
	<path fill="#40DBF0" d="M565.931 489.294C570.243 501.924 570.685 509.517 569.977 522.786C559.311 521.415 547.601 521.092 536.879 521.712C534.811 522.045 532.822 522.097 530.734 522.122C532.001 518.363 531.688 514.173 531.683 510.262C536.512 507.65 542.357 505.878 546.601 502.348C549.8 501.024 552.735 498.651 555.569 496.667Q560.724 492.944 565.931 489.294Z"/>
	<path fill="#9CAFB4" d="M555.569 496.667C554.948 499.834 553.651 500.947 550.989 502.735C546.142 505.992 535.716 508.462 534.668 515.011C534.36 516.935 534.842 519.707 535.908 521.317L536.879 521.712C534.811 522.045 532.822 522.097 530.734 522.122C532.001 518.363 531.688 514.173 531.683 510.262C536.512 507.65 542.357 505.878 546.601 502.348C549.8 501.024 552.735 498.651 555.569 496.667Z"/>
	<path fill="#3E4465" d="M498.017 495.89C503.862 492.613 509.559 490.988 516.219 492.987C518.78 493.756 520.918 495.001 523.152 496.416C525.617 498.804 527.729 501.097 529.552 504.04C530.278 506.103 531.072 508.163 531.683 510.262C531.688 514.173 532.001 518.363 530.734 522.122C528.532 526.536 525.994 529.974 521.989 532.936C517.626 534.8 512.971 535.54 508.283 536.055C506.187 536.056 504.122 535.813 502.099 535.242C495.91 533.495 492.266 529.52 489.202 524.11L487.558 519.05C487.382 514.24 487.531 510.52 489.103 505.933C491.41 502.101 494.814 498.96 498.017 495.89Z"/>
	<path fill="#9CAFB4" d="M509.594 500.836C513.206 501.523 517.705 503.389 519.939 506.452C521.887 509.122 522.407 512.671 521.741 515.867C521.032 519.276 518.912 522.198 515.983 524.066C513.058 525.932 509.296 526.713 505.894 525.919C502.438 525.112 499.566 522.272 497.858 519.263C497.54 518.702 497.318 518.156 497.144 517.537C496.845 516.381 496.577 515.182 496.454 513.994C496.143 510.967 496.918 507.742 498.896 505.39C501.767 501.976 505.391 501.185 509.594 500.836Z"/>
	<path fill="#F9F8F7" d="M497.144 517.537C496.845 516.381 496.577 515.182 496.454 513.994C496.143 510.967 496.918 507.742 498.896 505.39C501.767 501.976 505.391 501.185 509.594 500.836Q512.553 504.137 515.394 507.54C511.566 506.941 507.129 505.857 503.678 508.243C500.634 510.348 498.847 514.365 497.144 517.537Z"/>
</svg>
